<?xml version="1.0" encoding="UTF-8" standalone="no"?>
<svg
   xmlns:dc="http://purl.org/dc/elements/1.1/"
   xmlns:cc="http://creativecommons.org/ns#"
   xmlns:rdf="http://www.w3.org/1999/02/22-rdf-syntax-ns#"
   xmlns:svg="http://www.w3.org/2000/svg"
   xmlns="http://www.w3.org/2000/svg"
   xmlns:sodipodi="http://sodipodi.sourceforge.net/DTD/sodipodi-0.dtd"
   xmlns:inkscape="http://www.inkscape.org/namespaces/inkscape"
   xml:space="preserve"
   version="1.1"
   style="shape-rendering:geometricPrecision;text-rendering:geometricPrecision;image-rendering:optimizeQuality;"
   viewBox="0 0 847 1058.75"
   x="0px"
   y="0px"
   fill-rule="evenodd"
   clip-rule="evenodd"
   id="svg22"
   sodipodi:docname="1.svg"
   inkscape:version="0.92.5 (2060ec1f9f, 2020-04-08)"><metadata
     id="metadata26"><rdf:RDF><cc:Work
         rdf:about=""><dc:format>image/svg+xml</dc:format><dc:type
           rdf:resource="http://purl.org/dc/dcmitype/StillImage" /></cc:Work></rdf:RDF></metadata><sodipodi:namedview
     pagecolor="#ffffff"
     bordercolor="#666666"
     borderopacity="1"
     objecttolerance="10"
     gridtolerance="10"
     guidetolerance="10"
     inkscape:pageopacity="0"
     inkscape:pageshadow="2"
     inkscape:window-width="640"
     inkscape:window-height="480"
     id="namedview24"
     showgrid="false"
     inkscape:zoom="0.22290437"
     inkscape:cx="423.5"
     inkscape:cy="529.375"
     inkscape:window-x="0"
     inkscape:window-y="27"
     inkscape:window-maximized="0"
     inkscape:current-layer="svg22" /><defs
     id="defs4"><style
       type="text/css"
       id="style2">
   
    .fil1 {fill:black}
    .fil0 {fill:black;fill-rule:nonzero}
   
  </style></defs><g
     id="g16"
     style="fill:#ffffff"><path
       class="fil0"
       d="M489 623l14 34 -4 -34 -10 0zm-166 -509l38 65 37 -65 8 4 -37 65c14,2 26,9 36,19 10,10 17,23 20,37l222 0c6,0 13,3 17,7l0 0c4,5 7,11 7,17l0 279c0,7 -3,13 -7,17l0 0c-4,4 -11,7 -17,7l-31 0 0 37 0 10 -10 0 -19 0 14 102 2 11 -12 2 -9 1 -8 1 -4 -8 -45 -109 -5 0 14 99 1 11 -11 2 -6 0 -8 1 -4 -7 -45 -103 -1 -3 -73 0 -1 3 -43 103 -4 8 -8 -1 -8 -1 -11 -2 1 -11 14 -99 -4 0 0 0 -47 112 -3 8 -9 -1 -9 -1 -11 -1 2 -12 14 -105 -20 0 -9 0 0 -10 0 -37 -31 0c-7,0 -13,-3 -17,-7l0 0c-5,-4 -7,-10 -7,-17l0 -279c0,-6 2,-12 7,-17 4,-4 10,-7 17,-7l96 0c3,-14 10,-27 20,-37 10,-10 22,-17 36,-19l-37 -65 8 -4zm76 94c-10,-10 -24,-17 -39,-17 -14,0 -28,7 -38,17 -8,8 -14,19 -17,31l111 0c-3,-12 -9,-23 -17,-31zm-124 462l21 -50 -14 0 -7 50zm276 -53l21 51 -7 -51 -14 0zm-208 44l15 -38 -10 0 -5 38zm254 -67l0 -22 -347 0 0 22 347 0zm50 -333l-447 0c-1,0 -1,1 -2,1 0,0 0,1 0,1l0 279c0,0 0,1 0,1l0 0c1,1 1,1 2,1l447 0c0,0 1,0 1,-1 1,0 1,-1 1,-1l0 -279c0,0 0,-1 -1,-1l0 0c0,0 -1,-1 -1,-1z"
       id="path6"
       style="fill:#ffffff" /><path
       class="fil0"
       d="M242 282l303 0c6,0 11,2 15,6 4,3 6,9 6,14l0 201c0,6 -2,11 -6,15 -4,3 -9,6 -15,6l-303 0c-6,0 -11,-3 -15,-6 -3,-4 -6,-9 -6,-15l0 -201c0,-5 3,-11 6,-14 4,-4 9,-6 15,-6zm302 22l-300 0 0 197 300 0 0 -197z"
       id="path8"
       style="fill:#ffffff" /><circle
       class="fil1"
       cx="607"
       cy="352"
       r="21"
       id="circle10"
       style="fill:#ffffff" /><polygon
       class="fil0"
       points="628,391 628,474 619,474 619,391 "
       id="polygon12"
       style="fill:#ffffff" /><polygon
       class="fil0"
       points="596,391 596,474 586,474 586,391 "
       id="polygon14"
       style="fill:#ffffff" /></g><text
     x="0"
     y="862"
     fill="#000000"
     font-size="5px"
     font-weight="bold"
     font-family="'Helvetica Neue', Helvetica, Arial-Unicode, Arial, Sans-serif"
     id="text18">Created by asyifun</text>
<text
     x="0"
     y="867"
     fill="#000000"
     font-size="5px"
     font-weight="bold"
     font-family="'Helvetica Neue', Helvetica, Arial-Unicode, Arial, Sans-serif"
     id="text20">from the Noun Project</text>
</svg>