<?xml version="1.0" encoding="UTF-8" standalone="no"?>
<svg
   xmlns:dc="http://purl.org/dc/elements/1.1/"
   xmlns:cc="http://creativecommons.org/ns#"
   xmlns:rdf="http://www.w3.org/1999/02/22-rdf-syntax-ns#"
   xmlns:svg="http://www.w3.org/2000/svg"
   xmlns="http://www.w3.org/2000/svg"
   xmlns:sodipodi="http://sodipodi.sourceforge.net/DTD/sodipodi-0.dtd"
   xmlns:inkscape="http://www.inkscape.org/namespaces/inkscape"
   version="1.1"
   x="0px"
   y="0px"
   viewBox="0 0 100 125"
   enable-background="new 0 0 100 100"
   xml:space="preserve"
   id="svg28"
   sodipodi:docname="2.svg"
   inkscape:version="0.92.5 (2060ec1f9f, 2020-04-08)"><metadata
     id="metadata34"><rdf:RDF><cc:Work
         rdf:about=""><dc:format>image/svg+xml</dc:format><dc:type
           rdf:resource="http://purl.org/dc/dcmitype/StillImage" /></cc:Work></rdf:RDF></metadata><defs
     id="defs32" /><sodipodi:namedview
     pagecolor="#ffffff"
     bordercolor="#666666"
     borderopacity="1"
     objecttolerance="10"
     gridtolerance="10"
     guidetolerance="10"
     inkscape:pageopacity="0"
     inkscape:pageshadow="2"
     inkscape:window-width="640"
     inkscape:window-height="480"
     id="namedview30"
     showgrid="false"
     inkscape:zoom="1.888"
     inkscape:cx="50"
     inkscape:cy="62.5"
     inkscape:window-x="0"
     inkscape:window-y="27"
     inkscape:window-maximized="0"
     inkscape:current-layer="svg28" /><g
     id="g22"
     style="fill:#ffffff"><g
       id="g20"
       style="fill:#ffffff"><path
         fill="none"
         d="M64.888,58.36c-1.066-0.014-1.868,0.189-2.548,0.652c-0.669,0.455-1.552,0.44-2.207-0.036    c-0.664-0.485-1.466-0.72-2.525-0.737c-0.029-0.001-0.057-0.001-0.086-0.001c-1.108,0-2.141,0.356-2.917,1.007    c-0.718,0.601-1.12,1.387-1.134,2.211c-0.052,3.154,3.829,6.62,6.663,9.15l0.897,0.802l0.923-0.771    c2.917-2.436,6.911-5.771,6.964-8.924c0.014-0.825-0.363-1.623-1.06-2.248C67.083,58.771,66.029,58.379,64.888,58.36z"
         id="path2"
         style="fill:#ffffff" /><path
         fill="none"
         d="M46.816,67.118l2.834,2.538l2.341-1.959c-1.401-1.914-2.387-4.025-2.349-6.305    c0.032-1.952,0.921-3.757,2.502-5.082c1.503-1.259,3.444-1.946,5.527-1.901c1.369,0.023,2.566,0.29,3.628,0.812    c1.025-0.462,2.173-0.688,3.457-0.685c1.136-2,1.707-3.866,1.738-5.677c0.035-2.088-0.89-4.084-2.603-5.62    c-1.79-1.605-4.207-2.513-6.805-2.556c-2.357-0.058-4.288,0.467-5.876,1.547c-0.669,0.456-1.553,0.44-2.207-0.036    c-1.551-1.132-3.455-1.703-5.822-1.743c-0.064-0.001-0.127-0.002-0.191-0.002c-5.174,0-9.41,3.494-9.483,7.861    C33.393,55.132,41.151,62.059,46.816,67.118z"
         id="path4"
         style="fill:#ffffff" /><path
         fill="none"
         d="M19.839,90.483l0.177-0.851c-0.098-0.008-0.195-0.018-0.293-0.026L19.839,90.483z"
         id="path6"
         style="fill:#ffffff" /><path
         fill="none"
         d="M80.161,90.483l0.116-0.877c-0.098,0.008-0.195,0.018-0.293,0.026L80.161,90.483z"
         id="path8"
         style="fill:#ffffff" /><path
         fill="none"
         d="M11.326,25.725c-3.09,19.686-2.834,39.626,0.761,59.314c25.167,2.67,50.66,2.67,75.826,0    c3.595-19.689,3.851-39.63,0.761-59.314C63.003,23.002,36.997,23.002,11.326,25.725z M86.661,81.982    c-0.142,0.854-0.84,1.506-1.701,1.59c-11.6,1.141-23.281,1.711-34.964,1.711c-11.679,0-23.358-0.569-34.956-1.71    c-0.861-0.084-1.559-0.737-1.701-1.59c-2.942-17.64-3.176-35.526-0.696-53.16c0.123-0.875,0.829-1.553,1.709-1.639    c23.654-2.324,47.641-2.324,71.296,0c0.88,0.086,1.586,0.764,1.709,1.639C89.837,46.456,89.603,64.342,86.661,81.982z"
         id="path10"
         style="fill:#ffffff" /><path
         fill="none"
         d="M82.863,79.629c2.524-16.105,2.739-32.407,0.642-48.507c-22.24-2.074-44.771-2.074-67.011,0    c-2.097,16.099-1.881,32.403,0.643,48.508C38.953,81.667,61.049,81.667,82.863,79.629z M42.991,36.619    c0.085,0,0.169,0.001,0.254,0.002c2.676,0.046,4.954,0.625,6.925,1.767c2.009-1.076,4.31-1.587,6.98-1.535    c3.519,0.059,6.821,1.315,9.297,3.534c2.553,2.29,3.93,5.321,3.876,8.535c-0.035,2.107-0.606,4.281-1.698,6.486    c0.649,0.321,1.251,0.723,1.788,1.205c1.537,1.377,2.365,3.212,2.332,5.163c-0.081,4.907-4.853,8.891-8.338,11.8l-2.19,1.833    c-0.356,0.298-0.793,0.447-1.229,0.447c-0.458,0-0.915-0.164-1.278-0.489l-2.128-1.905c-0.971-0.868-2.044-1.83-3.081-2.873    l-3.664,3.068c-0.356,0.298-0.793,0.447-1.23,0.447c-0.458,0-0.915-0.164-1.278-0.489l-4.065-3.642    c-6.217-5.551-14.73-13.153-14.587-21.728C29.785,41.79,35.734,36.619,42.991,36.619z"
         id="path12"
         style="fill:#ffffff" /><path
         d="M92.221,23.666c-0.14-0.847-0.827-1.497-1.68-1.591c-19.098-2.101-38.386-2.703-57.595-1.821l3.938-12.54    c0.317-1.009-0.244-2.084-1.253-2.401c-1.011-0.318-2.084,0.244-2.401,1.253l-4.364,13.895c-0.451,0.026-0.902,0.056-1.353,0.083    L24.208,6.477c-0.242-1.028-1.272-1.668-2.302-1.426c-1.029,0.242-1.668,1.272-1.426,2.303l3.159,13.442    c-4.736,0.337-9.465,0.76-14.181,1.279c-0.853,0.094-1.54,0.744-1.68,1.591c-3.482,21.062-3.211,42.42,0.806,63.482    c0.157,0.826,0.835,1.452,1.671,1.545c1.851,0.204,3.703,0.39,5.557,0.565l0.494,3.736c0.097,0.731,0.605,1.342,1.307,1.57    C18.145,94.735,19.126,95,20.154,95c0.789,0,1.606-0.156,2.267-0.628c0.392-0.28,0.665-0.697,0.763-1.169l0.682-3.278    C32.56,90.552,41.28,90.871,50,90.871c8.72,0,17.439-0.32,26.133-0.946l0.683,3.279c0.098,0.471,0.37,0.888,0.762,1.168    C78.239,94.844,79.056,95,79.846,95c1.028,0,2.009-0.265,2.54-0.437c0.702-0.228,1.21-0.839,1.307-1.571l0.494-3.735    c1.854-0.175,3.707-0.361,5.558-0.565c0.836-0.093,1.514-0.719,1.671-1.545C95.432,66.084,95.703,44.725,92.221,23.666z     M19.839,90.483l-0.116-0.877c0.098,0.008,0.195,0.018,0.293,0.026L19.839,90.483z M80.161,90.483l-0.177-0.85    c0.098-0.008,0.195-0.018,0.293-0.026L80.161,90.483z M87.913,85.039c-25.166,2.67-50.659,2.67-75.826,0    c-3.595-19.687-3.851-39.628-0.761-59.314c25.671-2.723,51.677-2.723,77.348,0C91.764,45.409,91.508,65.35,87.913,85.039z"
         id="path14"
         style="fill:#ffffff" /><path
         d="M85.648,27.184c-23.654-2.324-47.642-2.324-71.296,0c-0.88,0.086-1.586,0.764-1.709,1.639    c-2.48,17.634-2.246,35.52,0.696,53.16c0.142,0.854,0.84,1.506,1.701,1.59c11.598,1.141,23.277,1.71,34.956,1.71    c11.682,0,23.364-0.57,34.964-1.711c0.862-0.084,1.559-0.737,1.701-1.59c2.942-17.64,3.177-35.526,0.696-53.159    C87.234,27.947,86.528,27.27,85.648,27.184z M16.494,31.123c22.241-2.074,44.771-2.074,67.011,0    c2.097,16.1,1.882,32.402-0.642,48.507c-21.814,2.037-43.91,2.038-65.726,0.001C14.613,63.526,14.397,47.222,16.494,31.123z"
         id="path16"
         style="fill:#ffffff" /><path
         d="M44.265,69.974l4.065,3.642c0.363,0.325,0.82,0.489,1.278,0.489c0.437,0,0.874-0.149,1.23-0.447l3.664-3.068    c1.036,1.043,2.109,2.006,3.081,2.873l2.128,1.905c0.363,0.325,0.82,0.489,1.278,0.489c0.437,0,0.873-0.149,1.229-0.447    l2.19-1.833c3.485-2.91,8.257-6.893,8.338-11.8c0.033-1.951-0.795-3.786-2.332-5.163c-0.537-0.481-1.139-0.884-1.788-1.205    c1.092-2.205,1.663-4.379,1.698-6.486c0.054-3.214-1.323-6.246-3.876-8.535c-2.476-2.22-5.778-3.475-9.297-3.534    c-2.67-0.051-4.971,0.459-6.98,1.535c-1.97-1.142-4.249-1.721-6.925-1.767c-0.085-0.001-0.169-0.002-0.254-0.002    c-7.257,0-13.206,5.17-13.313,11.627C29.535,56.821,38.049,64.423,44.265,69.974z M61.953,70.637l-0.923,0.771l-0.897-0.802    c-2.834-2.531-6.715-5.997-6.663-9.15c0.014-0.825,0.417-1.61,1.134-2.211c0.776-0.651,1.809-1.007,2.917-1.007    c0.029,0,0.058,0,0.086,0.001c1.058,0.017,1.861,0.252,2.525,0.737c0.654,0.477,1.538,0.492,2.207,0.036    c0.68-0.463,1.482-0.666,2.548-0.652c1.141,0.019,2.195,0.411,2.968,1.105c0.697,0.625,1.073,1.423,1.06,2.248    C68.864,64.866,64.869,68.201,61.953,70.637z M42.99,40.449c0.064,0,0.127,0.001,0.191,0.002c2.367,0.04,4.272,0.611,5.822,1.743    c0.654,0.477,1.538,0.493,2.207,0.036c1.588-1.08,3.52-1.605,5.876-1.547c2.597,0.043,5.014,0.951,6.805,2.556    c1.714,1.536,2.638,3.532,2.603,5.62c-0.03,1.811-0.602,3.676-1.738,5.677c-1.285-0.003-2.432,0.222-3.457,0.685    c-1.061-0.522-2.258-0.788-3.628-0.812c-2.083-0.045-4.025,0.641-5.527,1.901c-1.581,1.326-2.47,3.13-2.502,5.082    c-0.038,2.279,0.948,4.391,2.349,6.305l-2.341,1.959l-2.834-2.538c-5.665-5.058-13.423-11.985-13.309-18.808    C33.58,43.943,37.816,40.449,42.99,40.449z"
         id="path18"
         style="fill:#ffffff" /></g></g><text
     x="0"
     y="115"
     fill="#000000"
     font-size="5px"
     font-weight="bold"
     font-family="'Helvetica Neue', Helvetica, Arial-Unicode, Arial, Sans-serif"
     id="text24">Created by Vladimir Belochkin</text>
<text
     x="0"
     y="120"
     fill="#000000"
     font-size="5px"
     font-weight="bold"
     font-family="'Helvetica Neue', Helvetica, Arial-Unicode, Arial, Sans-serif"
     id="text26">from the Noun Project</text>
</svg>