<?xml version="1.0" encoding="UTF-8" standalone="no"?>
<svg
   xmlns:dc="http://purl.org/dc/elements/1.1/"
   xmlns:cc="http://creativecommons.org/ns#"
   xmlns:rdf="http://www.w3.org/1999/02/22-rdf-syntax-ns#"
   xmlns:svg="http://www.w3.org/2000/svg"
   xmlns="http://www.w3.org/2000/svg"
   xmlns:sodipodi="http://sodipodi.sourceforge.net/DTD/sodipodi-0.dtd"
   xmlns:inkscape="http://www.inkscape.org/namespaces/inkscape"
   version="1.1"
   x="0px"
   y="0px"
   viewBox="0 0 66 82.5"
   enable-background="new 0 0 66 66"
   xml:space="preserve"
   id="svg18"
   sodipodi:docname="4.svg"
   inkscape:version="0.92.5 (2060ec1f9f, 2020-04-08)"><metadata
     id="metadata24"><rdf:RDF><cc:Work
         rdf:about=""><dc:format>image/svg+xml</dc:format><dc:type
           rdf:resource="http://purl.org/dc/dcmitype/StillImage" /></cc:Work></rdf:RDF></metadata><defs
     id="defs22" /><sodipodi:namedview
     pagecolor="#ffffff"
     bordercolor="#666666"
     borderopacity="1"
     objecttolerance="10"
     gridtolerance="10"
     guidetolerance="10"
     inkscape:pageopacity="0"
     inkscape:pageshadow="2"
     inkscape:window-width="640"
     inkscape:window-height="480"
     id="namedview20"
     showgrid="false"
     inkscape:zoom="2.8606061"
     inkscape:cx="33"
     inkscape:cy="41.25"
     inkscape:window-x="0"
     inkscape:window-y="27"
     inkscape:window-maximized="0"
     inkscape:current-layer="svg18" /><g
     id="g12"
     style="fill:#ffffff"><path
       d="M18.083,56.235l20.081-0.924c5.502-0.253,7.119-1.932,7.256-7.307l0.43-16.911c0.136-5.362-1.515-7.314-7.276-7.101   l-22.422,0.823c-5.115,0.188-5.49,2.473-5.942,6.801c-0.254,2.391-1.307,8.592-0.693,17.092   C9.974,55.053,12.486,56.494,18.083,56.235z M13.707,54.852l0.37-0.37l0.634,0.634C14.363,55.052,14.024,54.972,13.707,54.852z    M15.51,55.224C15.509,55.223,15.509,55.223,15.51,55.224l1.05-1.052l0.888,0.888l-0.094,0.094c-0.03,0.03-0.033,0.071-0.045,0.109   C16.688,55.281,16.087,55.273,15.51,55.224z M18.036,55.236c-0.02,0.001-0.04,0.001-0.06,0.002l1.182-1.182l0.233,0.233   c0.011,0.011,0.028,0.008,0.041,0.017c0.008,0.012,0.005,0.028,0.016,0.039l0.483,0.483l-0.337,0.337L18.036,55.236z    M21.447,54.017l0.81,0.81l-0.225,0.225l-1.367,0.063c0.049-0.094,0.052-0.208-0.028-0.287l-0.001-0.001L21.447,54.017z    M24.085,53.707l1.123,1.123c0.045,0.045,0.105,0.065,0.165,0.068l-2.312,0.106c-0.008-0.05-0.019-0.101-0.058-0.139l-0.039-0.039   L24.085,53.707z M26.433,54.85l0.794-0.794l0.661,0.661c0.039,0.039,0.092,0.052,0.143,0.059L26.433,54.85z M31.25,54.191   l-0.567-0.566l0.849-0.849l1.669,1.669c0.028,0.028,0.067,0.031,0.103,0.042l-0.049,0.049l-3.65,0.168l0.725-0.725l0.567,0.567   c0.097,0.097,0.255,0.098,0.354,0C31.348,54.447,31.348,54.289,31.25,54.191z M36.337,53.847l-0.843-0.843l0.965-0.965l1.392,1.392   l-0.87,0.87c-0.018,0.018-0.015,0.043-0.027,0.064l-2.958,0.136l1.144-1.144l0.843,0.843c0.097,0.097,0.255,0.098,0.354,0   C36.435,54.103,36.435,53.944,36.337,53.847z M38.58,49.892l1.405,1.405l-1.78,1.78l-1.392-1.392l1.749-1.749   C38.574,49.924,38.571,49.906,38.58,49.892z M42.368,49.568l1.108,1.108l-1.703,1.703l-1.081-1.081l1.638-1.637   C42.355,49.635,42.355,49.6,42.368,49.568z M41.42,52.732l-0.871,0.871c-0.098,0.098-0.098,0.256,0,0.354   c0.046,0.046,0.106,0.067,0.167,0.069c-0.458,0.099-0.937,0.165-1.427,0.208c-0.01-0.043-0.017-0.089-0.051-0.123l-0.68-0.68   l1.78-1.78L41.42,52.732z M38.117,54.312l-0.462,0.021l0.549-0.549L38.7,54.28C38.506,54.292,38.312,54.303,38.117,54.312z    M40.754,54.018c0.054-0.007,0.108-0.021,0.149-0.062l0.871-0.871l0.114,0.114c0.097,0.097,0.255,0.098,0.354,0   c0.098-0.098,0.098-0.256,0-0.354l-0.114-0.114l2.039-2.039C43.749,52.597,42.721,53.582,40.754,54.018z M44.542,43.199   l-0.203-0.203l0.214-0.214L44.542,43.199z M44.476,45.772l-0.332-0.332l0.349-0.349L44.476,45.772z M11.203,31.721   c0.445-4.226,0.696-5.749,4.985-5.907l22.422-0.823c5.036-0.187,6.365,1.165,6.239,6.077l-0.279,10.988l-0.586,0.586l-0.056-0.056   c-0.098-0.098-0.256-0.098-0.354,0s-0.098,0.256,0,0.354l0.056,0.056l-0.599,0.599c-0.098,0.098-0.098,0.256,0,0.354   c0.097,0.097,0.255,0.098,0.354,0l0.599-0.599l0.539,0.539l-0.012,0.477l-0.721,0.721c-0.179-0.179-0.332-0.366-0.526-0.172   c-0.098,0.098-0.098,0.256,0,0.354l0.172,0.172l-0.715,0.715c-0.098,0.098-0.098,0.256,0,0.354c0.097,0.097,0.255,0.098,0.354,0   l0.715-0.715l0.668,0.668l-0.039,1.518c-0.002,0.097-0.007,0.192-0.01,0.288l-1.18-1.181c-0.234-0.234-0.586,0.121-0.354,0.354   l1.46,1.461c0.012,0.012,0.031,0.009,0.045,0.019c-0.019,0.339-0.045,0.673-0.086,0.996c-0.035,0.012-0.073,0.014-0.101,0.042   l-0.366,0.366L41.506,48l1.105-1.105c0.098-0.098,0.098-0.256,0-0.354c-0.097-0.097-0.255-0.098-0.354,0l-1.13,1.13   c-0.091-0.038-0.194-0.039-0.268,0.035s-0.074,0.177-0.035,0.268l-0.663,0.663c-0.098,0.098-0.098,0.256,0,0.354   c0.097,0.097,0.255,0.098,0.354,0l0.638-0.638l0.915,0.915c-0.031,0.012-0.067,0.013-0.092,0.038l-1.638,1.637l-2.073-2.073   c-0.098-0.098-0.256-0.098-0.354,0s-0.098,0.256,0,0.354l0.34,0.34c-0.013,0.009-0.031,0.006-0.043,0.018l-1.749,1.749   l-0.677-0.677c-0.098-0.098-0.256-0.098-0.354,0s-0.098,0.256,0,0.354l0.677,0.677L35.14,52.65l-1.375-1.375   c-0.098-0.098-0.256-0.098-0.354,0s-0.098,0.256,0,0.354l1.375,1.375l-1.189,1.19c-0.012-0.036-0.014-0.074-0.042-0.102   l-1.669-1.669l2.185-2.185c0.098-0.098,0.098-0.256,0-0.354s-0.256-0.098-0.354,0l-2.185,2.185l-0.095-0.095   c-0.098-0.098-0.256-0.098-0.354,0s-0.098,0.256,0,0.354l0.095,0.095l-0.849,0.849l-0.755-0.754c-0.098-0.098-0.256-0.098-0.354,0   s-0.098,0.256,0,0.354l0.755,0.754l-1.113,1.113l-0.757,0.035c0.048-0.009,0.097-0.019,0.135-0.056   c0.098-0.098,0.098-0.256,0-0.354l-0.661-0.661l1.64-1.64c0.098-0.098,0.098-0.256,0-0.354s-0.256-0.098-0.354,0l-1.64,1.64   l-0.599-0.599c-0.097-0.097-0.255-0.098-0.354,0c-0.098,0.098-0.098,0.256,0,0.354l0.599,0.599l-1.182,1.182L25.4,54.897   c0.059-0.004,0.117-0.022,0.162-0.067c0.098-0.098,0.098-0.256,0-0.354l-1.123-1.123l1.209-1.209c0.098-0.098,0.098-0.256,0-0.354   s-0.256-0.098-0.354,0l-1.293,1.292c-0.047,0.009-0.096,0.018-0.132,0.055c-0.036,0.036-0.046,0.085-0.055,0.132l-1.204,1.204   l-0.81-0.81l0.741-0.741c0.098-0.098,0.098-0.256,0-0.354s-0.256-0.098-0.354,0l-1.905,1.905l-0.483-0.483   c-0.011-0.011-0.028-0.008-0.041-0.017c-0.008-0.012-0.005-0.028-0.016-0.039l-0.233-0.233l0.85-0.85   c0.098-0.098,0.098-0.256,0-0.354s-0.256-0.098-0.354,0l-0.85,0.85l-0.677-0.677c-0.097-0.097-0.256-0.099-0.354,0   c-0.098,0.098-0.098,0.256,0,0.354l0.677,0.677l-1.004,1.004l-0.888-0.888l0.407-0.407c0.098-0.098,0.098-0.256,0-0.354   s-0.256-0.098-0.354,0l-0.407,0.407l-0.56-0.56c-0.097-0.097-0.255-0.099-0.354,0c-0.098,0.098-0.098,0.256,0,0.354l0.56,0.56   l-1.043,1.043l-0.733-0.733l0.448-0.448c0.098-0.098,0.098-0.256,0-0.354s-0.256-0.098-0.354,0l-0.448,0.448l-0.483-0.483   c-0.098-0.098-0.256-0.098-0.354,0s-0.098,0.256,0,0.354l0.483,0.483l-0.5,0.5c-2.112-1.094-2.538-3.617-2.709-5.993   C9.91,40.282,10.941,34.196,11.203,31.721z"
       id="path2"
       style="fill:#ffffff" /><path
       d="M51.187,37.906l-0.006,0.349c-0.005,0.276,0.216,0.503,0.491,0.508c0.003,0,0.006,0,0.009,0c0.272,0,0.495-0.218,0.5-0.492   l0.006-0.333c2.514-0.169,4.224-2.402,4.195-4.584c-0.026-2.053-1.605-4.18-4.042-4.467l0.01-0.608   c0.005-0.276-0.216-0.503-0.491-0.508c-0.258,0.021-0.504,0.215-0.509,0.492l-0.011,0.623c-3.361,0.371-5.386,4.465-3.108,7.356   C48.952,37.155,50.041,37.735,51.187,37.906z M55.381,33.368c0.022,1.664-1.258,3.389-3.178,3.573l0.119-7.056   C54.142,30.156,55.361,31.768,55.381,33.368z M51.323,29.884l-0.119,7.014c-0.85-0.155-1.65-0.595-2.187-1.276   C47.257,33.389,48.834,30.269,51.323,29.884z"
       id="path4"
       style="fill:#ffffff" /><path
       d="M48.322,49.571l-0.373,0.376c-0.194,0.196-0.192,0.513,0.003,0.707c0.195,0.193,0.51,0.195,0.708-0.003l0.437-0.441   c1.601,1.064,3.651,1.036,5.139,0.094c2.072-1.312,2.959-4.366,1.345-6.631l0.073-0.073c0.194-0.196,0.192-0.513-0.003-0.707   c-0.197-0.195-0.513-0.193-0.708,0.003l-0.039,0.039c-1.235-1.072-2.893-1.214-4.276-0.741v0c-1.142,0.392-3.036,1.628-3.476,3.037   C46.666,46.791,47.351,48.523,48.322,49.571z M53.7,49.46c-1.142,0.723-2.723,0.716-3.894,0.036l5.052-5.093   C56.009,46.209,55.214,48.502,53.7,49.46z M48.108,45.531c0.403-1.293,3.729-3.837,6.089-1.882l-5.172,5.214   C48.279,48.033,47.756,46.654,48.108,45.531z"
       id="path6"
       style="fill:#ffffff" /><path
       d="M11.074,58.612c-0.013,1.371,0.671,3.03,1.664,3.931c1.772,1.619,1.979,1.295,29.979,2.39   c2.363,0.097,11.021,0.618,13.028-4.134c0.233-0.55,0.31-1.167,0.238-1.749c0.53-0.25,1.022-0.546,1.441-0.914   c1.771-1.546,2.386-3.99,2.786-6.4c1.259-7.434,1.641-15.054,1.135-22.649c-0.612-8.799-4.143-10.508-12.567-10.285   c-3.96,0.102-7.914,0.204-11.873,0.313c0.438-1.511-0.212-3.651-2.526-4.662c4.448-4.701,9.416-8.919,14.778-12.537   c0.229-0.154,0.29-0.465,0.135-0.694c-0.154-0.229-0.468-0.288-0.693-0.135c-7.517,5.071-14.689,12.03-15.249,13.03   c-0.572-0.13-1.176-0.206-1.82-0.181c-1.265,0.042-2.488,0.376-3.6,0.707L20.91,6.927c-0.186-0.204-0.501-0.218-0.706-0.034   c-0.205,0.186-0.22,0.502-0.034,0.707l6.711,7.379c-2.652,0.953-3.088,2.815-2.229,4.45c-3.328,0.093-5.943,0.159-8.124,0.216   C8.109,19.852,5.715,22.284,5.015,29.46c-0.552,5.631-0.709,11.353-0.468,17.005C4.75,51.359,5.445,56.158,11.074,58.612z    M54.825,60.41C54.825,60.41,54.825,60.41,54.825,60.41c-0.309,0.731-0.938,1.387-1.871,1.95   c-3.037,1.865-7.007,1.703-10.196,1.574c-27.386-1.07-27.843-0.756-29.347-2.13c-0.696-0.631-1.221-1.769-1.327-2.777   c3.003,1.051,3.159,1.208,36.328,1.014c0.002,0,0.003,0,0.005,0c2.125-0.012,4.7,0.016,6.6-0.591   C55.017,59.776,54.951,60.111,54.825,60.41z M27.864,18.653l0.625,0.625l-0.053,0.053L27.33,19.36   c0.013-0.055,0.005-0.103-0.019-0.154L27.864,18.653z M30.128,18.346l0.919,0.919l-1.82,0.046c-0.001-0.001,0-0.002-0.001-0.003   l-0.03-0.03L30.128,18.346z M34.823,18.051l-0.837,0.837l-0.895-0.895l0.836-0.836L34.823,18.051z M36.017,18.537l-0.487-0.487   l0.434-0.434C36.035,17.926,36.059,18.239,36.017,18.537z M35.71,18.938c0.049,0.049,0.112,0.073,0.177,0.073   c0.002,0,0.003-0.002,0.005-0.002c-0.018,0.045-0.034,0.092-0.055,0.134l-1.436,0.037l0.775-0.775L35.71,18.938z M33.593,19.2   l-1.753,0.045l0.899-0.899L33.593,19.2z M25.45,17.154c0.72-1.35,4.801-2.175,6.115-2.219c1.74-0.068,3.528,0.547,4.224,2.149   l-0.613,0.613l-1.436-1.436c-0.098-0.098-0.256-0.098-0.354,0s-0.098,0.256,0,0.354l0.188,0.188l-0.836,0.836l-0.38-0.38   c-0.098-0.098-0.256-0.098-0.354,0s-0.098,0.256,0,0.354l0.38,0.38l-0.952,0.952l-0.951-0.951l1.39-1.39   c0.098-0.098,0.098-0.256,0-0.354s-0.256-0.098-0.354,0l-1.424,1.424c-0.084-0.023-0.173-0.019-0.239,0.047   s-0.071,0.155-0.047,0.239l-0.966,0.966L28.217,18.3l0.862-0.862c0.098-0.098,0.098-0.256,0-0.354s-0.256-0.098-0.354,0   l-0.911,0.911c-0.067-0.002-0.134,0.019-0.185,0.07s-0.072,0.118-0.07,0.185L26.98,18.83l-0.419-0.418   c-0.098-0.098-0.256-0.097-0.354,0c-0.098,0.098-0.098,0.256,0,0.354l0.419,0.418l-0.2,0.2l-0.602,0.015   C25.302,18.799,25.079,17.858,25.45,17.154z M6.011,29.558c0.636-6.545,2.533-8.716,10.543-8.913   c4.125-0.106,27.341-0.717,32.25-0.843c7.965-0.201,10.978,1.179,11.544,9.353c0.501,7.517,0.123,15.058-1.123,22.416v0.001   c-0.345,2.074-0.848,4.405-2.459,5.812c-2.011,1.769-5.31,1.64-8.498,1.658c-32.352,0.177-33.25,0.127-36.495-1.202h0   c-5.057-2.167-5.998-5.871-6.225-11.416C5.307,40.817,5.463,35.143,6.011,29.558z"
       id="path8"
       style="fill:#ffffff" /><path
       d="M15.582,34.306l1.036-1.036l0.928,0.928l-2.237,2.237c-0.098,0.098-0.098,0.256,0,0.354c0.097,0.097,0.255,0.098,0.354,0   l2.237-2.237l0.754,0.754l-1.052,1.052c-0.098,0.098-0.098,0.256,0,0.354c0.097,0.097,0.255,0.098,0.354,0l1.052-1.052l1.371,1.371   c0.097,0.097,0.255,0.098,0.354,0c0.098-0.098,0.098-0.256,0-0.354l-0.622-0.622c0.09,0.039,0.162,0.074,0.27-0.035l0.646-0.646   l1.15,1.15c0.097,0.097,0.255,0.098,0.354,0c0.098-0.098,0.098-0.256,0-0.354l-1.15-1.15l1.731-1.731l1.182,1.182l-1.414,1.414   c-0.098,0.098-0.098,0.256,0,0.354c0.097,0.097,0.255,0.098,0.354,0l1.414-1.414l1.315,1.316c0.097,0.097,0.255,0.098,0.354,0   c0.098-0.098,0.098-0.256,0-0.354l-1.315-1.316l1.165-1.165c0.098-0.098,0.098-0.256,0-0.354s-0.256-0.098-0.354,0l-1.165,1.165   l-1.182-1.182l1.108-1.108c0.098-0.098,0.098-0.256,0-0.354s-0.256-0.098-0.354,0l-1.108,1.108l-1.621-1.622l0.668-0.668   c0.098-0.098,0.098-0.256,0-0.354s-0.256-0.098-0.354,0l-0.673,0.673c-0.098-0.083-0.243-0.086-0.336,0.007   c-0.093,0.093-0.091,0.238-0.007,0.336l-1.737,1.737l-0.354-0.354v-0.006c0-0.138-0.112-0.25-0.25-0.25s-0.25,0.112-0.25,0.25   v0.213l0.5,0.5L17.9,33.844l-0.928-0.928l0.316-0.316c0.098-0.098,0.098-0.256,0-0.354c-0.097-0.097-0.255-0.099-0.354,0   l-0.316,0.316l-0.297-0.297c-0.098-0.098-0.256-0.098-0.354,0c-0.098,0.098-0.098,0.256,0,0.354l0.297,0.297l-1.036,1.036   c-0.098,0.098-0.098,0.256,0,0.354C15.326,34.403,15.484,34.404,15.582,34.306z M21.137,31.314l1.621,1.622l-1.731,1.731   l-1.622-1.621L21.137,31.314z M19.052,33.4l1.622,1.621l-0.646,0.646c-0.075,0.075-0.074,0.179-0.035,0.27l-0.632-0.632   l0.411-0.411c0.098-0.098,0.098-0.256,0-0.354c-0.097-0.097-0.256-0.098-0.354,0l-0.411,0.411l-0.754-0.754L19.052,33.4z"
       id="path10"
       style="fill:#ffffff" /></g><text
     x="0"
     y="81"
     fill="#000000"
     font-size="5px"
     font-weight="bold"
     font-family="'Helvetica Neue', Helvetica, Arial-Unicode, Arial, Sans-serif"
     id="text14">Created by Creative Stall</text>
<text
     x="0"
     y="86"
     fill="#000000"
     font-size="5px"
     font-weight="bold"
     font-family="'Helvetica Neue', Helvetica, Arial-Unicode, Arial, Sans-serif"
     id="text16">from the Noun Project</text>
</svg>